<svg width="20" height="20" viewBox="0 0 20 20" fill="none" xmlns="http://www.w3.org/2000/svg">
<g clip-path="url(#clip0_2533_2339)">
<path d="M17.753 5.61517V14.8197C17.753 15.4459 17.2432 15.9557 16.615 15.9557H3.38427C2.75604 15.9557 2.24627 15.4459 2.24627 14.8197V5.61517C2.24627 4.98894 2.75608 4.47914 3.38427 4.47914H16.615C17.2432 4.47914 17.753 4.98894 17.753 5.61517Z" fill="#0156FF"/>
<path d="M17.753 5.61517V12.2546C17.753 12.8809 17.2432 13.3907 16.615 13.3907H3.38427C2.75604 13.3907 2.24627 12.8809 2.24627 12.2546V5.61517C2.24627 4.98894 2.75608 4.47914 3.38427 4.47914H16.615C17.2432 4.47914 17.753 4.98894 17.753 5.61517Z" fill="white"/>
<g opacity="0.1">
<path d="M17.7547 5.61558V14.8188C17.7547 15.4462 17.2438 15.9551 16.6164 15.9551H3.38455C2.75716 15.9551 2.24627 15.4462 2.24627 14.8188V14.5721H14.8235C15.4529 14.5721 15.9618 14.0613 15.9618 13.4358V4.47926H16.6164C17.2438 4.47926 17.7547 4.98819 17.7547 5.61558Z" fill="#001F5E"/>
</g>
<path d="M8.85482 15.9557H11.1445V18.097H8.85482V15.9557Z" fill="white"/>
<path d="M12.0206 18.2397L13.2386 19.6186H6.76085L7.9788 18.2397C8.05895 18.149 8.17421 18.097 8.29528 18.097H11.7042C11.8252 18.097 11.9405 18.149 12.0206 18.2397Z" fill="#E5E9EF"/>
<g opacity="0.1">
<path d="M13.239 19.6186H11.8502L11.3044 19.0009C11.2247 18.9096 11.1101 18.8571 10.9878 18.8571H7.58072C7.51664 18.8571 7.45641 18.8707 7.40006 18.8979L7.98084 18.2394C8.06047 18.1481 8.17509 18.0976 8.29745 18.0976H11.7045C11.8269 18.0976 11.9414 18.1481 12.0211 18.2394L13.239 19.6186Z" fill="#001F5E"/>
</g>
<path d="M13.978 4.97013C14.1023 6.66446 13.1664 8.15498 11.7659 8.84757V10.729C11.7659 10.9741 11.5673 11.1727 11.3222 11.1727H8.68029C8.43527 11.1727 8.23665 10.9741 8.23665 10.729V8.84757C6.91955 8.19622 6.01343 6.83928 6.01343 5.27074C6.01343 2.97281 7.95776 1.12843 10.2908 1.29318C12.249 1.4314 13.8345 3.01233 13.978 4.97013Z" fill="#EF9A31"/>
<path d="M8.2096 8.83316C8.21866 8.83773 8.22723 8.84306 8.23637 8.84755V10.729C8.23637 10.974 8.43499 11.1726 8.68001 11.1726H11.322C11.567 11.1726 11.7656 10.974 11.7656 10.729V8.84755C11.7747 8.84306 11.7832 8.83769 11.7922 8.83316H8.2096Z" fill="#E5E9EF"/>
<g opacity="0.1">
<path d="M11.766 8.84819V10.7295C11.766 10.9738 11.5669 11.1729 11.3214 11.1729H8.68021C8.43571 11.1729 8.23565 10.9728 8.23565 10.7283V10.6121H10.4098C10.6546 10.6121 10.8531 10.4136 10.8531 10.1688V8.96742C10.8531 8.57331 11.0481 8.20649 11.371 7.98062C12.4773 7.20687 13.1736 5.88612 13.0652 4.4098C12.9834 3.29071 12.4298 2.29494 11.6047 1.62158C12.9194 2.20128 13.869 3.47562 13.978 4.9705C14.1014 6.66456 13.166 8.15471 11.766 8.84819Z" fill="#001F5E"/>
</g>
<path d="M11.241 11.1701L10.8242 11.8766C10.7621 11.9818 10.6491 12.0464 10.5269 12.0467L9.47717 12.0489C9.35509 12.0492 9.24192 11.9851 9.17936 11.8802L8.75864 11.1753L11.241 11.1701Z" fill="white"/>
<path d="M16.6148 16.15C17.3495 16.15 17.9472 15.5532 17.9472 14.8197C17.9472 12.7161 17.9472 7.84572 17.9472 5.61516C17.9472 4.88173 17.3495 4.28496 16.6148 4.28496H14.0617C13.6404 2.55182 12.1275 1.22827 10.3027 1.09939C8.20411 0.94918 6.41086 2.34431 5.93752 4.28496H3.38411C2.64963 4.28496 2.0519 4.88173 2.0519 5.61516V14.8197C2.0519 15.5533 2.64959 16.15 3.38411 16.15H8.66038V17.9027H8.29504C8.11843 17.9027 7.95018 17.9787 7.83316 18.1111L6.67312 19.4243H6.27144C6.16407 19.4243 6.07719 19.5113 6.07719 19.6186C6.07719 19.7259 6.16407 19.8128 6.27144 19.8128H13.7276C13.835 19.8128 13.9219 19.7259 13.9219 19.6186C13.9219 19.5113 13.835 19.4243 13.7276 19.4243H13.3259L12.1658 18.1111C12.049 17.9787 11.8807 17.9027 11.704 17.9027H11.3386V16.15H16.6148ZM10.2754 1.48692C12.1383 1.61849 13.6462 3.12207 13.7825 4.98433C13.8946 6.51255 13.0946 7.93794 11.7416 8.63891H8.25685C6.99044 7.98298 6.20591 6.70007 6.20591 5.27067C6.20595 3.12916 8.01282 1.32598 10.2754 1.48692ZM10.8978 11.367L10.6553 11.778C10.6282 11.8238 10.5783 11.8524 10.525 11.8525L9.47524 11.8547C9.47504 11.8547 9.47488 11.8547 9.47488 11.8547C9.42178 11.8547 9.37189 11.8263 9.34455 11.7807L9.09873 11.3688C9.11901 11.3687 11.014 11.3669 10.8978 11.367ZM11.3204 10.9785C11.3531 10.9781 10.8898 10.9762 8.67857 10.9785C8.54103 10.9785 8.42913 10.8665 8.42913 10.729V10.6119H11.5699V10.729C11.5698 10.8665 11.4579 10.9785 11.3204 10.9785ZM8.42913 9.02741H11.5699V9.39398H10.5178C10.4105 9.39398 10.3236 9.48095 10.3236 9.58823C10.3236 9.69552 10.4105 9.78248 10.5178 9.78248H11.5699V10.2234H8.42913V9.78248H9.86663C9.97399 9.78248 10.0609 9.69552 10.0609 9.58823C10.0609 9.48095 9.97399 9.39398 9.86663 9.39398H8.42913V9.02741ZM2.4404 5.61516C2.4404 5.0959 2.8638 4.67346 3.38411 4.67346H5.8617C5.83304 4.87035 5.81745 5.06981 5.81745 5.27071C5.81745 6.83272 6.66615 8.23775 8.04064 8.96637V10.7291C8.04064 11.0687 8.30823 11.3446 8.64318 11.3634L9.01108 11.9799C9.10818 12.1424 9.28576 12.2432 9.47488 12.2432H9.476L10.5258 12.2411C10.7156 12.2406 10.8936 12.1388 10.9899 11.9754L11.3508 11.364C11.6881 11.3478 11.9583 11.0705 11.9583 10.7292V8.96645C13.4275 8.18709 14.2925 6.62633 14.1699 4.95599C14.1629 4.86061 14.1494 4.76711 14.136 4.67354H16.6148C17.1354 4.67354 17.5588 5.09598 17.5588 5.61524V12.2547C17.5588 12.774 17.1354 13.1965 16.6148 13.1965H3.38411C2.8638 13.1965 2.4404 12.774 2.4404 12.2547V5.61516ZM2.4404 14.8197V13.1924C2.68182 13.4347 3.01569 13.5849 3.38411 13.5849H16.6148C16.9833 13.5849 17.3173 13.4347 17.5588 13.1924V14.8197C17.5588 15.339 17.1354 15.7615 16.6148 15.7615C13.6868 15.7615 6.33347 15.7615 3.38411 15.7615C2.8638 15.7615 2.4404 15.339 2.4404 14.8197ZM11.8746 18.3683C11.8746 18.3683 11.8746 18.3683 11.8748 18.3684L12.8075 19.4244H7.19138L8.12408 18.3684C8.16752 18.3193 8.22972 18.2912 8.295 18.2912H11.7039C11.7694 18.2912 11.8316 18.3193 11.8746 18.3683ZM10.9501 17.9027H9.04887V16.15H10.9501V17.9027Z" fill="#343551"/>
<path d="M12.8022 14.8413H13.5126C13.62 14.8413 13.7068 14.7544 13.7068 14.6471C13.7068 14.5398 13.62 14.4528 13.5126 14.4528H12.8022C12.6948 14.4528 12.608 14.5398 12.608 14.6471C12.608 14.7544 12.6948 14.8413 12.8022 14.8413Z" fill="#343551"/>
<path d="M14.3191 14.8413H15.0295C15.1368 14.8413 15.2237 14.7544 15.2237 14.6471C15.2237 14.5398 15.1368 14.4528 15.0295 14.4528H14.3191C14.2117 14.4528 14.1248 14.5398 14.1248 14.6471C14.1248 14.7544 14.2117 14.8413 14.3191 14.8413Z" fill="#343551"/>
<path d="M15.836 14.8413H16.5464C16.6537 14.8413 16.7406 14.7544 16.7406 14.6471C16.7406 14.5398 16.6537 14.4528 16.5464 14.4528H15.836C15.7286 14.4528 15.6417 14.5398 15.6417 14.6471C15.6417 14.7544 15.7286 14.8413 15.836 14.8413Z" fill="#343551"/>
<path d="M12.7961 1.2515V0.194249C12.7961 0.0869652 12.7092 0 12.6018 0C12.4945 0 12.4076 0.0869652 12.4076 0.194249V1.2515C12.4076 1.35878 12.4945 1.44575 12.6018 1.44575C12.7092 1.44575 12.7961 1.35878 12.7961 1.2515Z" fill="#343551"/>
<path d="M14.4945 0.898372L13.7469 1.64595C13.671 1.72182 13.671 1.84473 13.7469 1.92063C13.8228 1.9965 13.9457 1.9965 14.0216 1.92063L14.7692 1.17305C14.845 1.09719 14.845 0.974276 14.7692 0.898372C14.6933 0.822508 14.5704 0.822508 14.4945 0.898372Z" fill="#343551"/>
<path d="M14.223 3.06708C14.223 3.17437 14.3099 3.26133 14.4173 3.26133H15.4744C15.5818 3.26133 15.6687 3.17437 15.6687 3.06708C15.6687 2.9598 15.5818 2.87283 15.4744 2.87283H14.4173C14.3099 2.87287 14.223 2.95984 14.223 3.06708Z" fill="#343551"/>
<path d="M7.59219 1.2515V0.194249C7.59219 0.0869652 7.5053 0 7.39794 0C7.29057 0 7.20369 0.0869652 7.20369 0.194249V1.2515C7.20369 1.35878 7.29057 1.44575 7.39794 1.44575C7.50534 1.44575 7.59219 1.35878 7.59219 1.2515Z" fill="#343551"/>
<path d="M6.25099 1.92063C6.32685 1.84477 6.32685 1.72186 6.25099 1.64595L5.50341 0.898372C5.42754 0.822508 5.30463 0.822508 5.22872 0.898372C5.15286 0.974236 5.15286 1.09715 5.22872 1.17305L5.9763 1.92063C6.05217 1.9965 6.17508 1.9965 6.25099 1.92063Z" fill="#343551"/>
<path d="M4.33023 3.06708C4.33023 3.17437 4.41711 3.26133 4.52448 3.26133H5.58181C5.68917 3.26133 5.77605 3.17437 5.77605 3.06708C5.77605 2.9598 5.68917 2.87283 5.58181 2.87283H4.52448C4.41707 2.87287 4.33023 2.95984 4.33023 3.06708Z" fill="#343551"/>
</g>
<defs>
<clipPath id="clip0_2533_2339">
<rect width="19.4933" height="19.3117" fill="white" transform="scale(1.02595)"/>
</clipPath>
</defs>
</svg>
