<svg width="24" height="24" viewBox="0 0 24 24" fill="none" xmlns="http://www.w3.org/2000/svg">
<g clip-path="url(#clip0_2416_2753)">
<path d="M23.4304 8.625L20.9045 10.7393C20.9689 11.1802 21.0002 11.5947 21.0002 12C21.0002 12.4053 20.9689 12.8198 20.9045 13.2607L23.4304 15.375C23.6169 15.5308 23.6643 15.7979 23.5427 16.0083L21.2429 19.9917C21.1213 20.2017 20.8669 20.2944 20.6384 20.2115L17.549 19.0826C16.8884 19.5997 16.1545 20.022 15.3611 20.3409L14.7927 23.5865C14.7507 23.8257 14.5427 24 14.3 24H9.70043C9.45775 24 9.24972 23.8257 9.20777 23.5864L8.63941 20.3408C7.84596 20.022 7.11208 19.5996 6.45143 19.0825L3.36203 20.2114C3.13497 20.2959 2.87866 20.2021 2.75753 19.9917L0.457707 16.0083C0.336113 15.7978 0.383503 15.5307 0.570019 15.375L3.09588 13.2607C3.03147 12.8198 3.00021 12.4053 3.00021 12C3.00021 11.5947 3.03147 11.1802 3.09593 10.7393L0.570019 8.625C0.383503 8.46923 0.336113 8.20214 0.457707 7.99172L2.75753 4.00833C2.8796 3.79786 3.13643 3.70509 3.36203 3.78858L6.45138 4.91747C7.11203 4.40039 7.84591 3.978 8.63936 3.65916L9.20772 0.41353C9.24972 0.17428 9.45771 -4.57764e-05 9.70038 -4.57764e-05H14.3C14.5427 -4.57764e-05 14.7507 0.17428 14.7926 0.41353L15.361 3.65916C16.1545 3.978 16.8883 4.40039 17.549 4.91747L20.6383 3.78858C20.8654 3.70702 21.1212 3.79786 21.2428 4.00833L23.5427 7.99172C23.6643 8.20214 23.6169 8.46923 23.4304 8.625ZM12.0002 6.99998C9.24335 6.99998 7.00019 9.24314 7.00019 12C7.00019 14.7569 9.24335 17 12.0002 17C14.7571 17 17.0002 14.7568 17.0002 12C17.0002 9.24319 14.7571 6.99998 12.0002 6.99998Z" fill="#D6DBDB"/>
</g>
<defs>
<clipPath id="clip0_2416_2753">
<rect width="24" height="24" fill="white" transform="matrix(1 0 0 -1 0 24)"/>
</clipPath>
</defs>
</svg>
