<svg width="17" height="17" viewBox="0 0 17 17" fill="none" xmlns="http://www.w3.org/2000/svg">
<g clip-path="url(#clip0_2416_2771)">
<path d="M16.5972 10.8906L14.808 9.39303C14.8537 9.08072 14.8758 8.78707 14.8758 8.5C14.8758 8.21293 14.8537 7.91928 14.808 7.60697L16.5972 6.10938C16.7293 5.99904 16.7629 5.80985 16.6767 5.6608L15.0477 2.8392C14.9616 2.69048 14.7814 2.62477 14.6195 2.68354L12.4312 3.48317C11.9633 3.11691 11.4434 2.81772 10.8814 2.59187L10.4788 0.292885C10.4491 0.123482 10.3017 0 10.1298 0H6.87179C6.69989 0 6.55254 0.123482 6.52282 0.292951L6.12023 2.59194C5.5582 2.81778 5.03838 3.11698 4.57041 3.48324L2.38209 2.68358C2.22126 2.62374 2.0397 2.69015 1.9539 2.83923L0.32486 5.6608C0.238731 5.80988 0.272299 5.99907 0.404415 6.10938L2.19357 7.60697C2.14794 7.91928 2.1258 8.21293 2.1258 8.5C2.1258 8.78707 2.14794 9.08072 2.1936 9.39303L0.404415 10.8906C0.272299 11.001 0.238731 11.1902 0.32486 11.3392L1.9539 14.1608C2.04037 14.3098 2.22229 14.3756 2.38209 14.3164L4.57038 13.5168C5.03834 13.8831 5.55817 14.1823 6.1202 14.4081L6.52279 16.7071C6.55254 16.8766 6.69986 17 6.87175 17H10.1298C10.3017 17 10.4491 16.8766 10.4788 16.7071L10.8814 14.4081C11.4434 14.1823 11.9632 13.8831 12.4312 13.5168L14.6195 14.3164C14.7803 14.3742 14.9615 14.3098 15.0477 14.1608L16.6767 11.3392C16.7628 11.1902 16.7293 11.001 16.5972 10.8906ZM8.5008 12.0417C6.54802 12.0417 4.95912 10.4528 4.95912 8.5C4.95912 6.54722 6.54802 4.95832 8.5008 4.95832C10.4536 4.95832 12.0425 6.54726 12.0425 8.5C12.0425 10.4527 10.4536 12.0417 8.5008 12.0417Z" fill="#D6DBDB"/>
</g>
<defs>
<clipPath id="clip0_2416_2771">
<rect width="17" height="17" fill="white"/>
</clipPath>
</defs>
</svg>
