<svg width="50" height="50" viewBox="0 0 50 50" fill="none" xmlns="http://www.w3.org/2000/svg">
<rect x="0.5" y="0.5" width="49" height="49" rx="5.5" fill="#F9FAFB"/>
<rect x="0.5" y="0.5" width="49" height="49" rx="5.5" stroke="#F0F2F2"/>
<path d="M16.9099 10C14.9799 10 13.4199 11.57 13.4199 13.49C13.4199 15.42 14.9799 16.98 16.9099 16.98C18.83 16.98 20.4 15.42 20.4 13.49C20.4 11.57 18.83 10 16.9099 10Z" fill="#709DF6"/>
<path d="M11 25.6H22.81C23.37 25.6 23.81 25.15 23.81 24.6C23.81 20.83 20.74 17.76 16.97 17.76H16.84C13.07 17.76 10 20.83 10 24.6C10 25.15 10.45 25.6 11 25.6Z" fill="#709DF6"/>
<path d="M33.0897 24.3999C31.1696 24.3999 29.5996 25.9699 29.5996 27.89C29.5996 29.8199 31.1696 31.3799 33.0897 31.3799C35.0197 31.3799 36.5797 29.8199 36.5797 27.89C36.5797 25.9699 35.0197 24.3999 33.0897 24.3999Z" fill="#0156FF"/>
<path d="M27.1895 39.9999H38.9995C39.5494 39.9999 39.9995 39.5499 39.9995 38.9999C39.9995 35.2299 36.9294 32.1599 33.1594 32.1599H33.0295C29.2595 32.1599 26.1895 35.2299 26.1895 38.9999C26.1895 39.5499 26.6295 39.9999 27.1895 39.9999Z" fill="#0156FF"/>
<path d="M31 14.4912C32.6543 14.4912 34 15.8369 34 17.4912V21.6787C34 22.231 34.4473 22.6787 35 22.6787C35.5527 22.6787 36 22.231 36 21.6787V17.4912C36 14.7344 33.7568 12.4912 31 12.4912H25C24.4473 12.4912 24 12.939 24 13.4912C24 14.0435 24.4473 14.4912 25 14.4912H31Z" fill="#709DF6"/>
<path d="M15 27.3213C14.4473 27.3213 14 27.769 14 28.3213V32.5088C14 35.2656 16.2432 37.5088 19 37.5088H23.5801C24.1328 37.5088 24.5801 37.061 24.5801 36.5088C24.5801 35.9565 24.1328 35.5088 23.5801 35.5088H19C17.3457 35.5088 16 34.1631 16 32.5088V28.3213C16 27.769 15.5527 27.3213 15 27.3213Z" fill="#0156FF"/>
</svg>
