<svg width="775" height="275" viewBox="0 0 775 275" fill="none" xmlns="http://www.w3.org/2000/svg">
<g clip-path="url(#clip0_2424_3324)">
<path d="M429.453 9.41785H1102.83C1118.43 9.41785 1131.08 22.0673 1131.08 37.6713V274.058H429.453V9.41785Z" fill="url(#paint0_linear_2424_3324)" fill-opacity="0.8"/>
<path d="M1083.05 -0.470703C1098.91 -0.470703 1111.77 12.3899 1111.77 28.2539V274.529H-0.470703V28.2529C-0.470452 12.3891 12.3901 -0.470703 28.2539 -0.470703H1083.05Z" fill="#F1F4FA" stroke="#F0F2F2" stroke-width="0.941781"/>
<path d="M16.9531 31.0685C16.9531 23.2666 23.2779 16.9418 31.0798 16.9418H1081.17C1088.97 16.9418 1095.29 23.2666 1095.29 31.0685V274.058H16.9531V31.0685Z" fill="white"/>
<path d="M499.145 0H612.158V30.1712C612.158 32.7719 610.05 34.8801 607.449 34.8801H503.853C501.253 34.8801 499.145 32.7719 499.145 30.1712V0Z" fill="#F1F4FA"/>
<ellipse cx="555.652" cy="17.9384" rx="3.76712" ry="3.9863" fill="white"/>
<ellipse cx="555.651" cy="17.9385" rx="1.88356" ry="1.99315" fill="#E1E2E3"/>
<rect x="45.207" y="53.6815" width="1021.83" height="39.5548" rx="3.76712" fill="#F0F2F2"/>
<rect x="138.443" y="66.8665" width="145.034" height="13.1849" rx="3.76712" fill="white"/>
<rect x="298.545" y="66.8665" width="145.034" height="13.1849" rx="3.76712" fill="white"/>
<rect x="458.648" y="66.8665" width="145.034" height="13.1849" rx="3.76712" fill="white"/>
<path d="M88.1175 78.4744L86.1959 77.2854C84.6834 80.4721 81.5443 82.6599 77.9201 82.6599C74.3339 82.6599 71.2328 80.5291 69.7013 77.3995L71.2804 76.4388C72.498 78.9691 75.0093 80.7004 77.9201 80.7004C82.02 80.7004 85.3398 77.2473 85.3398 72.9952C85.3398 68.7432 82.02 65.2901 77.9201 65.2901C75.0283 65.2901 72.5265 67.0119 71.2994 69.5137L69.7203 68.5434C71.2613 65.4423 74.3529 63.3306 77.9201 63.3306C81.5348 63.3306 84.6549 65.4994 86.1769 68.6671L88.0794 67.478L88.0984 67.459C86.1864 63.6159 82.3529 61 77.9296 61C71.6038 60.9905 66.4766 66.3651 66.4766 72.9952C66.4766 79.6254 71.6038 85 77.9391 85C82.3814 85 86.234 82.3555 88.1365 78.484L88.1175 78.4744Z" fill="#131E32"/>
<path d="M79.375 71.1022L80.7543 70.3317L82.438 72.9952L80.7543 75.6587L79.375 74.8881L80.6402 72.9952L79.375 71.1022Z" fill="#EF9A31"/>
<path d="M76.4927 71.1022L75.1039 70.3317L73.4297 72.9952L75.1039 75.6587L76.4927 74.8881L75.2275 72.9952L76.4927 71.1022Z" fill="#EF9A31"/>
<rect x="45.207" y="108.305" width="766.61" height="165.753" rx="3.76712" fill="#F0F2F2"/>
<rect x="60.2754" y="123.373" width="235.445" height="61.2158" rx="3.76712" fill="white"/>
<rect x="80.9941" y="199.658" width="52.7397" height="13.1849" rx="3.76712" fill="white"/>
<rect x="173.289" y="199.658" width="52.7397" height="13.1849" rx="3.76712" fill="white"/>
<rect x="265.584" y="199.658" width="52.7397" height="13.1849" rx="3.76712" fill="white"/>
<rect x="357.879" y="199.658" width="52.7397" height="13.1849" rx="3.76712" fill="white"/>
<rect x="450.174" y="199.658" width="52.7397" height="13.1849" rx="3.76712" fill="white"/>
<rect x="542.467" y="199.658" width="52.7397" height="13.1849" rx="3.76712" fill="white"/>
<rect x="634.762" y="199.658" width="52.7397" height="13.1849" rx="3.76712" fill="white"/>
<rect x="727.057" y="199.658" width="52.7397" height="13.1849" rx="3.76712" fill="white"/>
<rect x="561.303" y="123.373" width="235.445" height="61.2158" rx="3.76712" fill="white"/>
<rect x="310.789" y="123.373" width="235.445" height="61.2158" rx="3.76712" fill="white"/>
<path d="M61.6039 201C61.6039 200.48 61.1822 200.058 60.6621 200.058C60.142 200.058 59.7203 200.48 59.7203 201L60.6621 201L61.6039 201ZM60.6621 201L59.7203 201L59.7203 274.459L60.6621 274.459L61.6039 274.459L61.6039 201L60.6621 201Z" fill="white"/>
<path d="M155.395 200.599C155.395 200.079 154.973 199.658 154.453 199.658C153.933 199.658 153.511 200.079 153.511 200.599L154.453 200.599L155.395 200.599ZM154.453 200.599L153.511 200.599L153.511 274.058L154.453 274.058L155.395 274.058L155.395 200.599L154.453 200.599Z" fill="white"/>
<path d="M247.69 200.599C247.69 200.079 247.268 199.658 246.748 199.658C246.228 199.658 245.806 200.079 245.806 200.599L246.748 200.599L247.69 200.599ZM246.748 200.599L245.806 200.599L245.806 274.058L246.748 274.058L247.69 274.058L247.69 200.599L246.748 200.599Z" fill="white"/>
<path d="M339.985 200.599C339.985 200.079 339.563 199.658 339.043 199.658C338.523 199.658 338.101 200.079 338.101 200.599L339.043 200.599L339.985 200.599ZM339.043 200.599L338.101 200.599L338.101 274.058L339.043 274.058L339.985 274.058L339.985 200.599L339.043 200.599Z" fill="white"/>
<path d="M432.28 199.658C432.28 199.137 431.858 198.716 431.338 198.716C430.818 198.716 430.396 199.137 430.396 199.658L431.338 199.658L432.28 199.658ZM431.338 199.658L430.396 199.658L430.396 275L431.338 275L432.28 275L432.28 199.658L431.338 199.658Z" fill="white"/>
<path d="M524.575 200.599C524.575 200.079 524.153 199.658 523.633 199.658C523.113 199.658 522.691 200.079 522.691 200.599L523.633 200.599L524.575 200.599ZM523.633 200.599L522.691 200.599L522.691 274.058L523.633 274.058L524.575 274.058L524.575 200.599L523.633 200.599Z" fill="white"/>
<path d="M616.868 200.599C616.868 200.079 616.446 199.658 615.926 199.658C615.406 199.658 614.984 200.079 614.984 200.599L615.926 200.599L616.868 200.599ZM615.926 200.599L614.984 200.599L614.984 274.058L615.926 274.058L616.868 274.058L616.868 200.599L615.926 200.599Z" fill="white"/>
<path d="M709.162 200.599C709.162 200.079 708.741 199.658 708.221 199.658C707.701 199.658 707.279 200.079 707.279 200.599L708.221 200.599L709.162 200.599ZM708.221 200.599L707.279 200.599L707.279 274.058L708.221 274.058L709.162 274.058L709.162 200.599L708.221 200.599Z" fill="white"/>
<rect x="568.838" y="129.966" width="75.3425" height="13.1849" rx="3.76712" fill="#E4EAF6"/>
<rect x="67.8105" y="129.966" width="44.2637" height="13.1849" rx="3.76712" fill="#E4EAF6"/>
<rect x="119.607" y="129.966" width="75.3425" height="13.1849" rx="3.76712" fill="#E4EAF6"/>
<path d="M318.324 172.346C318.324 170.265 320.011 168.579 322.091 168.579H339.043C341.124 168.579 342.811 170.265 342.811 172.346V184.589H318.324V172.346Z" fill="#E4EAF6"/>
<path d="M350.344 133.733C350.344 131.652 352.03 129.966 354.111 129.966H371.063C373.143 129.966 374.83 131.652 374.83 133.733V184.589H350.344V133.733Z" fill="#E4EAF6"/>
<path d="M383.307 143.151C383.307 141.07 384.993 139.384 387.074 139.384H404.026C406.106 139.384 407.793 141.07 407.793 143.151V184.589H383.307V143.151Z" fill="#E4EAF6"/>
<path d="M416.27 160.103C416.27 158.022 417.956 156.336 420.037 156.336H436.989C439.069 156.336 440.756 158.022 440.756 160.103V184.589H416.27V160.103Z" fill="#E4EAF6"/>
<path d="M449.23 150.685C449.23 148.604 450.917 146.918 452.998 146.918H469.95C472.03 146.918 473.717 148.604 473.717 150.685V184.589H449.23V150.685Z" fill="#E4EAF6"/>
<path d="M482.193 133.733C482.193 131.652 483.88 129.966 485.96 129.966H502.913C504.993 129.966 506.68 131.652 506.68 133.733V184.589H482.193V133.733Z" fill="#EF9A31"/>
<path d="M514.215 150.685C514.215 148.604 515.901 146.918 517.982 146.918H534.934C537.015 146.918 538.701 148.604 538.701 150.685V184.589H514.215V150.685Z" fill="#E4EAF6"/>
<rect x="660.189" y="164.812" width="129.024" height="13.1849" rx="3.76712" fill="#E4EAF6"/>
<rect x="232.621" y="164.812" width="55.5651" height="13.1849" rx="3.76712" fill="#E4EAF6"/>
<rect x="68.752" y="227.911" width="446.404" height="39.5548" rx="19.7774" fill="#0156FF"/>
<rect x="112.074" y="241.096" width="183.647" height="13.1849" rx="3.76712" fill="#709DF6"/>
<rect x="660.189" y="227.911" width="131.849" height="39.5548" rx="19.7774" fill="#0156FF"/>
<rect x="704.453" y="241.096" width="75.3425" height="13.1849" rx="3.76712" fill="#709DF6"/>
<path d="M269.375 173.072L276.005 195.481C276.145 195.952 276.787 196.039 277.052 195.623L282.242 187.456C282.307 187.355 282.401 187.277 282.514 187.232L291.596 183.576C292.059 183.39 292.078 182.755 291.627 182.542L270.182 172.404C269.732 172.191 269.236 172.601 269.375 173.072Z" fill="#F9CC15"/>
<path d="M291.596 183.463L288.769 184.589L270.227 175.913L269.376 173.064C269.236 172.598 269.732 172.192 270.182 172.403L291.627 182.439C292.078 182.65 292.059 183.278 291.596 183.463Z" fill="#F0C516"/>
<path fill-rule="evenodd" clip-rule="evenodd" d="M97.9471 242.979C96.3866 242.979 95.1217 241.714 95.1217 240.154C95.1217 239.646 95.256 239.169 95.4911 238.756C95.2148 238.699 94.9238 238.656 94.6165 238.623C93.5409 238.506 92.1851 238.506 90.4554 238.506H90.3703C88.6406 238.506 87.2848 238.506 86.2092 238.623C85.1115 238.741 84.2221 238.988 83.4627 239.54C83.003 239.874 82.5987 240.278 82.2647 240.738C81.713 241.498 81.4659 242.387 81.347 243.485C81.2305 244.56 81.2305 245.916 81.2305 247.646V247.731C81.2305 249.461 81.2305 250.816 81.347 251.892C81.4659 252.99 81.713 253.879 82.2647 254.638C82.5987 255.098 83.003 255.502 83.4627 255.836C84.2221 256.388 85.1115 256.635 86.2092 256.754C87.2848 256.871 88.6406 256.871 90.3702 256.871H90.4555C92.1851 256.871 93.5409 256.871 94.6165 256.754C95.7142 256.635 96.6035 256.388 97.363 255.836C97.8227 255.502 98.227 255.098 98.5609 254.638C99.1127 253.879 99.3597 252.99 99.4787 251.892C99.5952 250.816 99.5952 249.461 99.5952 247.731V247.646C99.5952 245.916 99.5952 244.56 99.4787 243.485C99.4454 243.177 99.402 242.886 99.3448 242.61C98.9327 242.845 98.4555 242.979 97.9471 242.979ZM95.4328 244.363C95.7831 244.535 95.9277 244.958 95.7559 245.309L94.3806 248.112C93.4175 250.076 90.5871 249.98 89.759 247.956C89.3926 247.06 88.1397 247.017 87.7134 247.886L86.3381 250.69C86.1663 251.04 85.7431 251.185 85.3929 251.013C85.0426 250.842 84.898 250.418 85.0698 250.068L86.4451 247.264C87.4081 245.301 90.2386 245.397 91.0666 247.421C91.4331 248.317 92.686 248.359 93.1123 247.49L94.4875 244.686C94.6594 244.336 95.0826 244.192 95.4328 244.363Z" fill="white"/>
<path d="M96.0645 240.154C96.0645 241.194 96.9077 242.038 97.948 242.038C98.9883 242.038 99.8316 241.194 99.8316 240.154C99.8316 239.114 98.9883 238.271 97.948 238.271C96.9077 238.271 96.0645 239.114 96.0645 240.154Z" fill="white"/>
<path fill-rule="evenodd" clip-rule="evenodd" d="M691.269 242.979C689.709 242.979 688.444 241.714 688.444 240.154C688.444 239.646 688.578 239.169 688.813 238.756C688.537 238.699 688.246 238.656 687.939 238.623C686.863 238.506 685.507 238.506 683.778 238.506H683.693C681.963 238.506 680.607 238.506 679.531 238.623C678.434 238.741 677.544 238.988 676.785 239.54C676.325 239.874 675.921 240.278 675.587 240.738C675.035 241.498 674.788 242.387 674.669 243.485C674.553 244.56 674.553 245.916 674.553 247.646V247.731C674.553 249.461 674.553 250.816 674.669 251.892C674.788 252.99 675.035 253.879 675.587 254.638C675.921 255.098 676.325 255.502 676.785 255.836C677.544 256.388 678.434 256.635 679.531 256.754C680.607 256.871 681.963 256.871 683.692 256.871H683.778C685.507 256.871 686.863 256.871 687.939 256.754C689.036 256.635 689.926 256.388 690.685 255.836C691.145 255.502 691.549 255.098 691.883 254.638C692.435 253.879 692.682 252.99 692.801 251.892C692.917 250.816 692.917 249.461 692.917 247.731V247.646C692.917 245.916 692.917 244.56 692.801 243.485C692.768 243.177 692.724 242.886 692.667 242.61C692.255 242.845 691.778 242.979 691.269 242.979ZM688.755 244.363C689.105 244.535 689.25 244.958 689.078 245.309L687.703 248.112C686.74 250.076 683.909 249.98 683.081 247.956C682.715 247.06 681.462 247.017 681.036 247.886L679.66 250.69C679.489 251.04 679.065 251.185 678.715 251.013C678.365 250.842 678.22 250.418 678.392 250.068L679.767 247.264C680.73 245.301 683.561 245.397 684.389 247.421C684.755 248.317 686.008 248.359 686.435 247.49L687.81 244.686C687.982 244.336 688.405 244.192 688.755 244.363Z" fill="white"/>
<path d="M689.385 240.154C689.385 241.194 690.228 242.038 691.268 242.038C692.309 242.038 693.152 241.194 693.152 240.154C693.152 239.114 692.309 238.271 691.268 238.271C690.228 238.271 689.385 239.114 689.385 240.154Z" fill="white"/>
<g clip-path="url(#clip1_2424_3324)">
<path d="M447.098 200.178C447.683 199.159 447.204 198.333 446.03 198.333L437.365 198.333C436.189 198.333 435.711 199.159 436.295 200.178L440.639 207.752C441.223 208.771 442.171 208.771 442.755 207.752L447.098 200.178Z" fill="#F9CC15"/>
</g>
<line x1="441.698" y1="206.25" x2="441.698" y2="275" stroke="#F9CC15" stroke-width="1.88356"/>
</g>
<defs>
<linearGradient id="paint0_linear_2424_3324" x1="780.266" y1="9.41785" x2="780.266" y2="274.058" gradientUnits="userSpaceOnUse">
<stop stop-color="#F1F4FA"/>
<stop offset="1" stop-color="#F8F9FA"/>
</linearGradient>
<clipPath id="clip0_2424_3324">
<rect width="775" height="275" fill="white"/>
</clipPath>
<clipPath id="clip1_2424_3324">
<rect width="11.3014" height="11.3014" fill="white" transform="translate(447.348 197.774) rotate(90)"/>
</clipPath>
</defs>
</svg>
