<svg width="150" height="61" viewBox="0 0 150 61" fill="none" xmlns="http://www.w3.org/2000/svg">
<g clip-path="url(#clip0_2533_2593)">
<path d="M44.4668 60.6817H45.2599V-0.265259H44.4668V60.6817Z" fill="white"/>
<path d="M58.6895 47.3147H60.4343L61.0687 44.8217H63.8181L64.3997 47.3147H66.356V46.1478L64.0825 38.0321H60.963L58.6895 46.1478V47.3147ZM62.2848 39.8886H62.5492L63.3951 43.2304H61.4917L62.2848 39.8886ZM67.3077 45.7765C67.4135 45.9356 67.5192 46.0947 67.6778 46.3069C67.8364 46.5191 68.0479 46.6782 68.3123 46.8904C68.5767 47.0495 68.8939 47.2086 69.3169 47.3678C69.687 47.4739 70.1628 47.5799 70.6916 47.5799C71.2203 47.5799 71.6433 47.5269 72.0663 47.4208C72.4364 47.3147 72.7536 47.1556 73.018 46.9434C73.2823 46.7843 73.4938 46.5721 73.7053 46.3599C73.8639 46.1478 74.0226 45.9886 74.0754 45.8295V43.4956C73.9697 43.3365 73.9168 43.1773 73.7582 43.0182C73.5996 42.8591 73.4409 42.6999 73.2295 42.5939C73.018 42.4347 72.7536 42.3286 72.3835 42.1695C72.0663 42.0104 71.6433 41.9043 71.1145 41.7982L70.4801 41.6391C70.11 41.586 69.8456 41.4799 69.687 41.3739C69.5284 41.2678 69.3698 41.1617 69.3169 41.0026V40.2069C69.4226 40.0478 69.5812 39.8886 69.7927 39.7295C70.0042 39.5704 70.3215 39.5173 70.6387 39.5173C71.0088 39.5173 71.2732 39.5704 71.4847 39.7295C71.6961 39.8886 71.8548 40.0478 71.9605 40.2069V40.9495H74.0225V39.6234C73.9168 39.4643 73.8111 39.3052 73.6524 39.093C73.4938 38.8808 73.2823 38.6686 73.018 38.5095C72.7536 38.3504 72.4364 38.1912 72.0134 38.0321C71.6433 37.926 71.1674 37.8199 70.6387 37.8199C70.11 37.8199 69.6341 37.873 69.264 38.0321C68.8939 38.1382 68.5238 38.2973 68.2594 38.5095C67.9951 38.6686 67.7836 38.8808 67.6249 39.093C67.4663 39.3052 67.3077 39.4643 67.2548 39.6234V41.7452C67.3606 41.9043 67.4135 42.0634 67.5721 42.1695C67.6778 42.3286 67.8893 42.4347 68.1008 42.5939C68.3123 42.753 68.5767 42.8591 68.9468 43.0182C69.264 43.1773 69.687 43.2834 70.1628 43.3895L70.9031 43.5486C71.2732 43.6547 71.4847 43.7078 71.6433 43.8139C71.8019 43.9199 71.9076 44.026 71.9605 44.1852V45.1399C71.8548 45.2991 71.6961 45.4582 71.4847 45.6173C71.2732 45.7765 71.0088 45.8295 70.6387 45.8295C70.2686 45.8295 70.0042 45.7765 69.7927 45.6173C69.5812 45.4582 69.4226 45.2991 69.3169 45.1399V44.2912H67.2548L67.3077 45.7765ZM75.4501 45.7765C75.5559 45.9356 75.6616 46.0947 75.8202 46.3069C75.9788 46.5191 76.1903 46.6782 76.4547 46.8904C76.7191 47.0495 77.0363 47.2086 77.4593 47.3678C77.8294 47.4739 78.3052 47.5799 78.834 47.5799C79.3627 47.5799 79.7857 47.5269 80.2087 47.4208C80.5788 47.3147 80.896 47.1556 81.2132 46.9434C81.4776 46.7843 81.6891 46.5721 81.8477 46.3599C82.0063 46.1478 82.165 45.9886 82.2178 45.8295V43.4956C82.1121 43.3365 82.0063 43.1773 81.9006 43.0182C81.742 42.8591 81.5833 42.6999 81.3719 42.5939C81.1604 42.4347 80.896 42.3286 80.5259 42.1695C80.2087 42.0104 79.7857 41.9043 79.2569 41.7982L78.6225 41.6391C78.2524 41.586 77.988 41.4799 77.8294 41.3739C77.6708 41.2678 77.5122 41.1617 77.4593 41.0026V40.2069C77.565 40.0478 77.7236 39.8886 77.9351 39.7295C78.1466 39.5704 78.4639 39.5173 78.7811 39.5173C79.1512 39.5173 79.4156 39.5704 79.6271 39.7295C79.8386 39.8886 79.9972 40.0478 80.1029 40.2069V40.9495H82.1649V39.6234C82.0592 39.4643 81.9535 39.3052 81.7948 39.093C81.6362 38.8808 81.4247 38.6686 81.1604 38.5095C80.896 38.3504 80.5788 38.1912 80.1558 38.0321C79.7857 37.926 79.3098 37.8199 78.7811 37.8199C78.2524 37.8199 77.7765 37.873 77.4064 38.0321C77.0363 38.1382 76.6662 38.2973 76.4018 38.5095C76.1375 38.6686 75.926 38.8808 75.7674 39.093C75.6087 39.3052 75.4501 39.4643 75.3972 39.6234V41.7452C75.4501 41.9043 75.5559 42.0634 75.7145 42.1695C75.8202 42.3286 76.0317 42.4347 76.2432 42.5939C76.4547 42.753 76.7191 42.8591 77.0892 43.0182C77.4064 43.1773 77.8294 43.2834 78.3052 43.3895L79.0455 43.5486C79.4156 43.6547 79.6271 43.7078 79.7857 43.8139C79.9443 43.9199 80.05 44.026 80.1029 44.1852V45.1399C79.9972 45.2991 79.8386 45.4582 79.6271 45.6173C79.4156 45.7765 79.1512 45.8295 78.7811 45.8295C78.411 45.8295 78.1466 45.7765 77.9351 45.6173C77.7236 45.4582 77.565 45.2991 77.4593 45.1399V44.2912H75.3972L75.4501 45.7765ZM85.8132 40.313C85.9189 40.1008 86.0775 39.8886 86.289 39.7295C86.5005 39.5704 86.8178 39.5173 87.1879 39.5173C87.558 39.5173 87.8223 39.5704 88.0867 39.7295C88.2982 39.8886 88.4568 40.1008 88.5626 40.313V45.0869C88.4568 45.2991 88.2982 45.4582 88.0867 45.6173C87.8752 45.7765 87.558 45.8826 87.1879 45.8826C86.8178 45.8826 86.5534 45.7765 86.289 45.6173C86.0775 45.4582 85.9189 45.2991 85.8132 45.0869V40.313ZM83.6454 45.5113C83.7511 45.7234 83.8569 45.9356 84.0684 46.2008C84.227 46.466 84.4914 46.6782 84.7557 46.8373C85.0201 47.0495 85.3902 47.2086 85.7603 47.3147C86.1304 47.4208 86.6063 47.5269 87.135 47.5269C87.6637 47.5269 88.0867 47.4739 88.5097 47.3147C88.9327 47.1556 89.2499 46.9965 89.5143 46.8373C89.7786 46.6252 90.043 46.413 90.2016 46.2008C90.3602 45.9356 90.5188 45.7234 90.6246 45.5113V39.8886C90.5188 39.6765 90.4131 39.4643 90.2016 39.1991C90.043 38.9339 89.7786 38.7217 89.5143 38.5626C89.2499 38.3504 88.8798 38.1913 88.5097 38.0852C88.1396 37.9791 87.6637 37.873 87.135 37.873C86.6063 37.873 86.1304 37.926 85.7603 38.0852C85.3373 38.2443 85.0201 38.4034 84.7557 38.5626C84.4914 38.7747 84.227 38.9869 84.0684 39.1991C83.9098 39.4643 83.7511 39.6765 83.6454 39.8886V45.5113ZM97.0751 43.5486V45.0869C96.9693 45.2991 96.8107 45.4582 96.5992 45.6173C96.3877 45.7765 96.0705 45.8826 95.7004 45.8826C95.3303 45.8826 95.0659 45.7765 94.8015 45.6173C94.59 45.4582 94.4314 45.2991 94.3257 45.0869V40.313C94.4314 40.1008 94.59 39.8886 94.8015 39.7295C95.013 39.5704 95.3303 39.5173 95.7004 39.5173C96.0705 39.5173 96.3348 39.5704 96.5992 39.7295C96.8107 39.8886 96.9693 40.1008 97.0751 40.313V41.6921H99.1371V39.7295C99.0314 39.5704 98.9256 39.3582 98.7141 39.146C98.5555 38.9339 98.344 38.7217 98.0268 38.5626C97.7624 38.4034 97.3923 38.2443 97.0222 38.0852C96.6521 37.9791 96.1762 37.873 95.6475 37.873C95.1188 37.873 94.6958 37.926 94.2728 38.0852C93.9027 38.2443 93.5326 38.4034 93.2682 38.5626C93.0039 38.7747 92.7395 38.9869 92.5809 39.1991C92.4223 39.4643 92.2636 39.6765 92.1579 39.8886V45.5113C92.2636 45.7234 92.3694 45.9356 92.5809 46.2008C92.7395 46.466 93.0039 46.6782 93.2682 46.8373C93.5326 47.0495 93.9027 47.2086 94.2728 47.3147C94.6958 47.4208 95.1188 47.5269 95.6475 47.5269C96.1762 47.5269 96.5992 47.4739 97.0222 47.3147C97.3923 47.2086 97.7624 47.0495 98.0268 46.8373C98.2911 46.6252 98.5026 46.466 98.7141 46.2539C98.8727 46.0417 99.0314 45.8295 99.1371 45.6704V43.5486H97.0751ZM100.723 47.3147H102.891V38.0321H100.723V47.3147ZM104.213 47.3147H105.958L106.592 44.8217H109.342L109.976 47.3147H111.932V46.1478L109.659 38.0321H106.539L104.213 46.1478V47.3147ZM107.808 39.8886H108.073L108.919 43.2304H107.015L107.808 39.8886ZM113.994 47.3147H116.162V39.6765H118.33V38.0852H111.879V39.6765H114.047V47.3147H113.994ZM119.652 47.3147H121.82V38.0321H119.652V47.3147ZM125.573 40.313C125.679 40.1008 125.838 39.8886 126.049 39.7295C126.261 39.5704 126.578 39.5173 126.948 39.5173C127.318 39.5173 127.583 39.5704 127.847 39.7295C128.059 39.8886 128.217 40.1008 128.323 40.313V45.0869C128.217 45.2991 128.059 45.4582 127.847 45.6173C127.636 45.7765 127.318 45.8826 126.948 45.8826C126.578 45.8826 126.314 45.7765 126.049 45.6173C125.838 45.4582 125.679 45.2991 125.573 45.0869V40.313ZM123.459 45.5113C123.564 45.7234 123.67 45.9356 123.882 46.2008C124.04 46.466 124.305 46.6782 124.569 46.8373C124.833 47.0495 125.203 47.2086 125.573 47.3147C125.996 47.4208 126.419 47.5269 126.948 47.5269C127.477 47.5269 127.9 47.4739 128.323 47.3147C128.693 47.1556 129.063 46.9965 129.327 46.8373C129.592 46.6252 129.856 46.413 130.015 46.2008C130.173 45.9356 130.332 45.7234 130.438 45.5113V39.8886C130.332 39.6765 130.226 39.4643 130.015 39.1991C129.856 38.9339 129.592 38.7217 129.327 38.5626C129.063 38.3504 128.693 38.1913 128.323 38.0852C127.9 37.9791 127.477 37.873 126.948 37.873C126.419 37.873 125.996 37.926 125.573 38.0852C125.203 38.2443 124.833 38.4034 124.569 38.5626C124.305 38.7747 124.04 38.9869 123.882 39.1991C123.723 39.4643 123.564 39.6765 123.459 39.8886V45.5113ZM132.13 47.3147H134.139V41.6921H134.35L136.994 47.3147H139.426V38.0321H137.417V43.6547H137.153L134.509 38.0321H132.077V47.3147H132.13Z" fill="white"/>
<path d="M59.1133 34.9026H61.2811V31.0304H64.4006V29.4391H61.2811V27.2644H64.5592V25.6731H59.1133V34.9026ZM67.943 27.8478C68.0488 27.6357 68.2074 27.4765 68.4189 27.2644C68.6304 27.1052 68.9476 27.0522 69.3177 27.0522C69.6878 27.0522 69.9522 27.1583 70.2166 27.2644C70.4281 27.4235 70.5867 27.6357 70.6924 27.8478V32.6748C70.5867 32.887 70.4281 33.0461 70.2166 33.2052C70.0051 33.3644 69.6878 33.4174 69.3177 33.4174C68.9476 33.4174 68.6832 33.3644 68.4189 33.2052C68.2074 33.0461 68.0488 32.887 67.943 32.6748V27.8478ZM65.7752 33.0461C65.881 33.2583 65.9867 33.4704 66.1982 33.7357C66.3568 34.0009 66.6212 34.2131 66.8856 34.3722C67.1499 34.5844 67.52 34.7435 67.8902 34.8496C68.2603 35.0087 68.7361 35.0617 69.2648 35.0617C69.7936 35.0617 70.2166 35.0087 70.6395 34.8496C71.0097 34.6904 71.3798 34.5313 71.6441 34.3722C71.9085 34.16 72.1729 33.9478 72.3315 33.7357C72.4901 33.4704 72.6487 33.2583 72.7545 33.0461V27.4235C72.6487 27.2113 72.543 26.9991 72.3315 26.7339C72.1729 26.5217 71.9085 26.2565 71.6441 26.0974C71.3798 25.8852 71.0097 25.7261 70.6395 25.62C70.2694 25.5139 69.7936 25.4078 69.2648 25.4078C68.7361 25.4078 68.2603 25.4609 67.8902 25.62C67.4672 25.7791 67.1499 25.9383 66.8856 26.0974C66.6212 26.3096 66.3568 26.5217 66.1982 26.7339C66.0396 26.9991 65.881 27.2113 65.7752 27.4235V33.0461ZM76.4555 27.8478C76.5613 27.6357 76.7199 27.4765 76.9314 27.2644C77.1429 27.1052 77.4601 27.0522 77.8302 27.0522C78.2003 27.0522 78.4647 27.1583 78.7291 27.2644C78.9406 27.4235 79.0992 27.6357 79.2049 27.8478V32.6748C79.0992 32.887 78.9406 33.0461 78.7291 33.2052C78.5176 33.3644 78.2003 33.4174 77.8302 33.4174C77.4601 33.4174 77.1958 33.3644 76.9314 33.2052C76.7199 33.0461 76.5613 32.887 76.4555 32.6748V27.8478ZM74.3406 33.0461C74.4464 33.2583 74.5521 33.4704 74.7636 33.7357C74.9222 34.0009 75.1866 34.2131 75.451 34.3722C75.7153 34.5844 76.0854 34.7435 76.4555 34.8496C76.8785 35.0087 77.3015 35.0617 77.8302 35.0617C78.359 35.0617 78.7819 35.0087 79.2049 34.8496C79.575 34.6904 79.9451 34.5313 80.2095 34.3722C80.4739 34.16 80.7382 33.9478 80.8969 33.7357C81.0555 33.4704 81.2141 33.2583 81.3198 33.0461V27.4235C81.2141 27.2113 81.1083 26.9991 80.8969 26.7339C80.7382 26.5217 80.4739 26.2565 80.2095 26.0974C79.9451 25.8852 79.575 25.7261 79.2049 25.62C78.7819 25.5139 78.359 25.4078 77.8302 25.4078C77.3015 25.4078 76.8785 25.4609 76.4555 25.62C76.0854 25.7791 75.7153 25.9383 75.451 26.0974C75.1866 26.3096 74.9222 26.5217 74.7636 26.7339C74.605 26.9991 74.4464 27.2113 74.3406 27.4235V33.0461ZM84.4922 34.9026H86.66V27.2113H88.8278V25.62H82.3773V27.2113H84.5451V34.9026H84.4922ZM90.0967 34.9026H94.0093C94.3794 34.9026 94.6438 34.8496 94.961 34.7435C95.2254 34.6374 95.4897 34.5313 95.7541 34.3722C95.9656 34.2131 96.1771 34.0539 96.3357 33.8417C96.4943 33.6296 96.6529 33.4704 96.7587 33.2583V30.9774C96.6529 30.7652 96.4943 30.6061 96.2828 30.447C96.0713 30.2878 95.8598 30.1287 95.7012 30.0226C95.9127 29.9165 96.0713 29.7574 96.2828 29.5983C96.4943 29.4391 96.6001 29.227 96.7058 29.1209V27.1583C96.6001 26.9991 96.4415 26.787 96.2828 26.5748C96.1242 26.3626 95.9127 26.2035 95.7012 26.0444C95.4897 25.8852 95.2254 25.7791 94.961 25.6731C94.6967 25.567 94.3794 25.5139 94.0622 25.5139H90.1496V34.9026H90.0967ZM92.2645 29.3861V27.1583H93.5863C93.8507 27.1583 94.115 27.2113 94.2737 27.3174C94.4852 27.4235 94.5909 27.5826 94.6967 27.7948V28.7496C94.5909 28.9087 94.4323 29.0678 94.2208 29.1739C94.0093 29.28 93.7978 29.3331 93.5863 29.3331H92.2645V29.3861ZM92.2645 33.3113V30.8713H93.6392C93.9036 30.8713 94.115 30.9244 94.3265 31.0304C94.538 31.1365 94.6966 31.2957 94.8024 31.4548V32.6748C94.6966 32.887 94.538 32.9931 94.3794 33.1522C94.1679 33.2583 93.9036 33.3113 93.5863 33.3113H92.2645ZM97.8161 34.9026H99.5609L100.195 32.4096H102.945L103.526 34.9026H105.483V33.7357L103.209 25.62H100.09L97.8161 33.6826V34.9026ZM101.464 27.4765H101.729L102.522 30.8183H100.618L101.464 27.4765ZM106.857 34.9026H111.88V33.3113H109.025V25.62H106.857V34.9026ZM113.149 34.9026H118.172V33.3113H115.317V25.62H113.149V34.9026Z" fill="white"/>
<path d="M64.1892 22.4904H65.8811V21.3234L64.2949 18.8834C64.6122 18.7243 64.9294 18.5652 65.1409 18.353C65.4053 18.1408 65.6168 17.8756 65.7754 17.5573V14.8521C65.511 14.3217 65.088 13.9504 64.6122 13.6852C64.1363 13.42 63.6076 13.2608 62.9731 13.2608H59.0605V22.5434H61.2283V19.1486H62.1272L64.1892 22.4904ZM61.2283 17.5573V14.7991H62.4973C62.7616 14.7991 63.026 14.8521 63.2375 14.9582C63.449 15.0643 63.6076 15.2234 63.7134 15.4356V16.9208C63.6076 17.133 63.449 17.2921 63.2375 17.3982C63.026 17.5043 62.7616 17.5573 62.4973 17.5573H61.2283ZM69.4236 15.4356C69.5294 15.2234 69.688 15.0643 69.8995 14.9052C70.111 14.746 70.4282 14.693 70.7983 14.693C71.1684 14.693 71.4328 14.746 71.6971 14.9052C71.9086 15.0643 72.0672 15.2234 72.173 15.4356V20.2626C72.0672 20.4747 71.9086 20.6339 71.6971 20.793C71.4856 20.9521 71.1684 21.0052 70.7983 21.0052C70.4282 21.0052 70.1638 20.9521 69.8995 20.793C69.688 20.6339 69.5294 20.4747 69.4236 20.2626V15.4356ZM67.2558 20.6339C67.3616 20.846 67.4673 21.0582 67.6788 21.3234C67.8374 21.5886 68.1018 21.8008 68.3662 21.96C68.6305 22.1721 69.0006 22.3313 69.3707 22.4373C69.7408 22.5965 70.2167 22.6495 70.7454 22.6495C71.2742 22.6495 71.6971 22.5965 72.1201 22.4373C72.5431 22.3313 72.8603 22.1191 73.1247 21.96C73.3891 21.7478 73.6534 21.5356 73.812 21.3234C73.9707 21.1113 74.1293 20.846 74.235 20.6339V15.0113C74.1293 14.7991 74.0235 14.5869 73.812 14.3217C73.6534 14.0565 73.3891 13.8443 73.1247 13.6852C72.8603 13.473 72.4902 13.3139 72.1201 13.2078C71.75 13.0486 71.2742 12.9956 70.7454 12.9956C70.2167 12.9956 69.7408 13.0486 69.3707 13.2078C69.0006 13.3139 68.6305 13.526 68.3662 13.6852C68.1018 13.8973 67.8374 14.1095 67.6788 14.3217C67.5202 14.5339 67.3616 14.7991 67.2558 15.0113V20.6339ZM77.6189 22.4904H79.7867V18.8304L82.2717 14.3747V13.1547H80.5269L79.0464 16.3373H78.7821L77.3016 13.1547H75.3454V14.3747L77.6718 18.6182L77.6189 22.4904ZM82.2188 22.4904H83.9636L84.5981 19.9973H87.2946L87.9291 22.4904H89.8854V21.3234L87.6118 13.2078H84.4923L82.2188 21.3234V22.4904ZM85.867 15.0643H86.1314L86.9245 18.406H85.0211L85.867 15.0643ZM91.2072 22.4904H96.2301V20.8991H93.375V13.2078H91.2072V22.4904ZM100.09 22.4904H104.002C104.372 22.4904 104.637 22.4373 104.954 22.3313C105.218 22.2252 105.483 22.1191 105.747 21.96C105.959 21.8008 106.17 21.6417 106.329 21.4295C106.487 21.2173 106.646 21.0582 106.752 20.846V18.5652C106.646 18.353 106.487 18.1939 106.276 18.0347C106.064 17.8756 105.853 17.7165 105.694 17.6634C105.906 17.5573 106.064 17.3982 106.276 17.2391C106.487 17.08 106.593 16.8678 106.699 16.7086V14.746C106.593 14.5869 106.435 14.3747 106.276 14.1626C106.117 13.9504 105.906 13.7913 105.694 13.6321C105.483 13.473 105.218 13.3669 104.954 13.2608C104.69 13.1547 104.372 13.1017 104.055 13.1017H100.143V22.4904H100.09ZM102.258 16.9739V14.746H103.579C103.844 14.746 104.108 14.7991 104.267 14.9052C104.478 15.0113 104.584 15.1704 104.69 15.3826V16.3373C104.584 16.4965 104.425 16.6556 104.267 16.7617C104.055 16.8678 103.844 16.9208 103.632 16.9208H102.258V16.9739ZM102.258 20.8991V18.4591H103.632C103.897 18.4591 104.108 18.5121 104.32 18.6182C104.531 18.7243 104.69 18.8834 104.795 19.0426V20.2626C104.69 20.4217 104.531 20.5808 104.372 20.74C104.161 20.846 103.897 20.8991 103.579 20.8991H102.258ZM108.338 22.4904H113.995V20.8991H110.506V18.5652H113.678V16.9739H110.506V14.8521H113.89V13.2608H108.338V22.4904ZM115.529 22.4904H120.552V20.8991H117.696V13.2078H115.529V22.4904ZM125.204 18.8304H126.526V20.2626C126.42 20.4217 126.262 20.6339 126.05 20.793C125.839 20.9521 125.522 21.0052 125.151 21.0052C124.781 21.0052 124.464 20.9521 124.253 20.793C123.988 20.6339 123.83 20.4747 123.777 20.2626V15.4356C123.883 15.2234 124.041 15.0643 124.253 14.9052C124.464 14.746 124.781 14.693 125.151 14.693C125.522 14.693 125.786 14.746 126.05 14.9052C126.262 15.0643 126.42 15.2234 126.526 15.4356V16.3904H128.588V14.8521C128.482 14.693 128.377 14.4808 128.165 14.2686C128.007 14.0565 127.795 13.8443 127.478 13.6852C127.214 13.526 126.843 13.3669 126.473 13.2078C126.103 13.1017 125.627 12.9956 125.099 12.9956C124.57 12.9956 124.147 13.0486 123.724 13.2078C123.301 13.3139 122.984 13.526 122.719 13.6852C122.455 13.8973 122.191 14.1095 122.032 14.3217C121.873 14.5339 121.715 14.7991 121.609 15.0113V20.6339C121.715 20.846 121.82 21.0582 122.032 21.3234C122.191 21.5886 122.455 21.8008 122.719 21.96C122.984 22.1721 123.354 22.3313 123.724 22.4373C124.094 22.5965 124.57 22.6495 125.099 22.6495C125.627 22.6495 126.05 22.5965 126.473 22.4373C126.843 22.3313 127.214 22.1721 127.478 21.96C127.742 21.7478 127.954 21.5886 128.165 21.3234C128.324 21.1113 128.482 20.8991 128.588 20.74V17.2391H125.257L125.204 18.8304ZM130.122 22.4904H132.289V13.2078H130.122V22.4904ZM133.664 22.4904H135.409L136.043 19.9973H138.74L139.374 22.4904H141.331V21.3234L139.057 13.2078H135.885L133.611 21.3234V22.4904H133.664ZM137.259 15.0643H137.524L138.317 18.406H136.413L137.259 15.0643ZM142.652 22.4904H144.662V16.8678H144.926L147.57 22.4904H150.002V13.2078H147.993V18.8304H147.728L145.085 13.2078H142.652V22.4904Z" fill="white"/>
<path fill-rule="evenodd" clip-rule="evenodd" d="M15.0149 0.212158V1.43216H13.7988V2.28085H15.0149V3.44781H15.8609V2.28085H17.0241V1.43216H15.8609V0.212158H15.0149Z" fill="white"/>
<path fill-rule="evenodd" clip-rule="evenodd" d="M10.1523 11.7757H20.674V10.927H10.1523V11.7757Z" fill="white"/>
<path fill-rule="evenodd" clip-rule="evenodd" d="M10.1523 10.0252H20.674V9.17651H10.1523V10.0252Z" fill="white"/>
<path fill-rule="evenodd" clip-rule="evenodd" d="M15.0156 8.32781H15.8616V4.29651H15.0156V8.32781Z" fill="white"/>
<path fill-rule="evenodd" clip-rule="evenodd" d="M10.6269 8.00955C10.3097 7.42607 9.99245 6.78955 9.99245 6.31216C9.99245 5.67564 10.4683 5.19825 11.1556 5.1452C11.3143 5.1452 11.4729 5.1452 11.5786 5.19825C11.6844 4.93303 11.843 4.66781 12.0016 4.45564C11.7373 4.34955 11.4729 4.29651 11.1028 4.29651C9.99245 4.34955 9.14648 5.25129 9.14648 6.31216C9.14648 6.94868 9.46372 7.63825 9.83383 8.32781H10.7855C10.6798 8.22173 10.6269 8.11564 10.6269 8.00955Z" fill="white"/>
<path fill-rule="evenodd" clip-rule="evenodd" d="M13.6406 8.32787C13.5877 8.27483 13.5877 8.16874 13.5348 8.1157C13.3234 7.53222 13.0061 6.84265 13.0061 6.36526C13.0061 5.6757 13.3762 5.30439 13.7463 5.19831C13.905 5.14526 14.0107 5.14526 14.1164 5.19831V4.34961C13.9578 4.34961 13.7463 4.34961 13.5348 4.40265C12.6889 4.61483 12.1602 5.41048 12.1602 6.41831C12.1602 7.00178 12.4245 7.74439 12.6889 8.38091H13.6406" fill="white"/>
<path fill-rule="evenodd" clip-rule="evenodd" d="M19.7738 4.29651C19.4037 4.29651 19.1394 4.34955 18.875 4.45564C19.0336 4.66781 19.1922 4.93303 19.298 5.19825C19.4037 5.1452 19.5623 5.1452 19.721 5.1452C20.4083 5.19825 20.8842 5.67564 20.8842 6.31216C20.8842 6.78955 20.5669 7.42607 20.2497 8.00955C20.1968 8.11564 20.1439 8.22173 20.0911 8.32781H21.0428C21.4129 7.69129 21.7301 7.00173 21.7301 6.31216C21.7301 5.25129 20.8842 4.34955 19.7738 4.29651Z" fill="white"/>
<path fill-rule="evenodd" clip-rule="evenodd" d="M16.707 4.34954V5.25128C16.8128 5.19823 16.9714 5.19823 17.0771 5.25128C17.3944 5.35737 17.8174 5.72867 17.8174 6.41824C17.8174 6.89563 17.553 7.58519 17.2886 8.16867C17.2358 8.22171 17.2358 8.3278 17.1829 8.38084H18.0817C18.3461 7.74432 18.6105 7.05476 18.6105 6.41824C18.6105 5.41041 18.0817 4.6678 17.2358 4.40258C17.0771 4.2965 16.8656 4.2965 16.707 4.34954Z" fill="white"/>
<path fill-rule="evenodd" clip-rule="evenodd" d="M28.0756 55.0591C26.648 55.0591 25.3262 56.12 25.3262 56.12H30.8778C30.8249 56.0669 29.5031 55.0591 28.0756 55.0591Z" fill="white"/>
<path fill-rule="evenodd" clip-rule="evenodd" d="M24.9076 56.6714C23.48 56.6714 22.1582 57.7323 22.1582 57.7323H27.7098C27.7098 57.7323 26.3351 56.6714 24.9076 56.6714Z" fill="white"/>
<path fill-rule="evenodd" clip-rule="evenodd" d="M22.8437 58.5809C21.5747 57.9444 19.8828 58.2627 19.8828 58.2627L24.8529 60.7557C24.8529 60.7557 24.1126 59.2175 22.8437 58.5809Z" fill="white"/>
<path fill-rule="evenodd" clip-rule="evenodd" d="M18.7205 58.5809C17.5044 57.9444 15.8125 58.2627 15.8125 58.2627L20.7825 60.7557C20.7825 60.7557 19.9894 59.2175 18.7205 58.5809Z" fill="white"/>
<path fill-rule="evenodd" clip-rule="evenodd" d="M29.2392 52.9904C30.138 51.8765 30.1909 50.1791 30.1909 50.1791L26.6484 54.4756C26.7013 54.4756 28.3404 54.1043 29.2392 52.9904Z" fill="white"/>
<path fill-rule="evenodd" clip-rule="evenodd" d="M25.8539 54.4756C26.647 53.3087 26.5412 51.5582 26.5412 51.5582L23.4746 56.2261C23.4746 56.2261 25.0608 55.6956 25.8539 54.4756Z" fill="white"/>
<path fill-rule="evenodd" clip-rule="evenodd" d="M21.0429 57.4735C22.3119 56.837 23.0521 55.2987 23.0521 55.2987L18.082 57.7917C18.082 57.7917 19.774 58.057 21.0429 57.4735Z" fill="white"/>
<path fill-rule="evenodd" clip-rule="evenodd" d="M2.74938 55.0334C4.17695 55.0334 5.49877 56.0943 5.49877 56.0943H0C0 56.0943 1.37469 55.0334 2.74938 55.0334Z" fill="white"/>
<path fill-rule="evenodd" clip-rule="evenodd" d="M5.92126 56.6777C7.34882 56.6777 8.67064 57.7386 8.67064 57.7386H3.17188C3.17188 57.7386 4.49369 56.6777 5.92126 56.6777Z" fill="white"/>
<path fill-rule="evenodd" clip-rule="evenodd" d="M7.98391 58.5874C9.25286 57.9509 10.8919 58.2691 10.8919 58.2691L5.92188 60.7622C5.97475 60.7622 6.71497 59.2239 7.98391 58.5874Z" fill="white"/>
<path fill-rule="evenodd" clip-rule="evenodd" d="M12.107 58.5874C13.3759 57.9509 15.015 58.2691 15.015 58.2691L10.0449 60.7622C10.0978 60.7622 10.838 59.2239 12.107 58.5874Z" fill="white"/>
<path fill-rule="evenodd" clip-rule="evenodd" d="M1.58648 52.9904C0.687638 51.8765 0.634766 50.1791 0.634766 50.1791L4.17724 54.4756C4.17724 54.4756 2.48531 54.1043 1.58648 52.9904Z" fill="white"/>
<path fill-rule="evenodd" clip-rule="evenodd" d="M5.02211 54.4756C4.22902 53.3087 4.33476 51.5582 4.33476 51.5582L7.40138 56.2261C7.40138 56.2261 5.76233 55.6956 5.02211 54.4756Z" fill="white"/>
<path fill-rule="evenodd" clip-rule="evenodd" d="M9.78065 57.4461C8.5117 56.8096 7.77148 55.2714 7.77148 55.2714L12.7415 57.7644C12.7415 57.7644 11.0496 58.0827 9.78065 57.4461Z" fill="white"/>
<path d="M30.5088 39.9946C30.5088 48.3755 23.7405 55.1655 15.4395 55.1655C7.1386 55.1653 0.371094 48.3754 0.371094 39.9946V13.4731H30.5088V39.9946ZM15.8633 54.3696C22.1683 54.1498 27.4579 49.7466 29.0898 43.8413C29.1206 43.7301 29.1506 43.6186 29.1787 43.5063C29.2351 43.2812 29.2854 43.0538 29.3311 42.8247C29.5136 41.9092 29.6094 40.9626 29.6094 39.9946C29.6094 39.0265 29.5137 38.0808 29.3311 37.1665C29.2855 36.9383 29.235 36.7119 29.1787 36.4878C29.1224 36.2632 29.0599 36.041 28.9932 35.8208C28.7595 35.0503 28.4629 34.3073 28.1094 33.5981C25.8374 29.0365 21.2167 25.86 15.8633 25.6733V54.3696ZM10.998 53.6274C11.0096 53.6313 11.0217 53.6344 11.0332 53.6382C12.2915 54.0558 13.6021 54.3169 15.0166 54.3169V14.3218H10.998V53.6274ZM6.13379 50.8159C7.1978 51.7441 8.34316 52.5098 9.60449 53.0776L10.1523 53.3091V14.3218H6.13379V50.8159ZM1.2168 39.9946C1.2168 40.2774 1.22598 40.5582 1.24219 40.8364C1.44687 44.3801 2.93529 47.6104 5.28809 50.02V14.3218H1.2168V39.9946ZM20.5684 17.8228C20.4099 17.8228 20.1986 17.8226 20.04 17.8755C19.8816 17.9285 19.7229 17.9817 19.6172 18.0347C19.5116 18.0876 19.4055 18.1935 19.3525 18.2466C19.2997 18.2996 19.2462 18.3527 19.1934 18.4058H19.2471V19.4136C19.2998 19.4142 19.3526 19.5198 19.4053 19.5728C19.511 19.6258 19.6169 19.7316 19.7227 19.7847C19.5641 19.8377 19.4582 19.9442 19.3525 20.0503C19.2468 20.1564 19.1935 20.2098 19.1406 20.3159V21.1646C19.1407 21.2704 19.1942 21.3232 19.2998 21.4292C19.4055 21.5353 19.5114 21.6418 19.6172 21.6948C19.7229 21.8007 19.8816 21.8537 20.04 21.9067C20.1986 21.9597 20.4098 21.9595 20.6211 21.9595C20.8326 21.9595 21.0445 21.9598 21.2031 21.9067C21.3617 21.8537 21.5203 21.7478 21.626 21.6948C21.7846 21.5887 21.8376 21.5353 21.9434 21.4292C21.9961 21.3234 22.0488 21.2176 22.1016 21.1646V20.3159C22.0487 20.2629 21.9963 20.1563 21.8906 20.0503C21.7849 19.9442 21.679 19.8377 21.5205 19.7847C21.6787 19.7316 21.784 19.6258 21.8369 19.5728C21.8898 19.5197 21.9432 19.4666 21.9961 19.4136V18.4058C21.9432 18.3527 21.8898 18.2996 21.8369 18.2466C21.7839 18.1934 21.6787 18.0876 21.5732 18.0347C21.4676 17.9817 21.3089 17.9285 21.1504 17.8755C20.9918 17.8224 20.7799 17.8228 20.5684 17.8228ZM24.0049 17.8228C23.7936 17.8228 23.5823 17.8225 23.4238 17.8755C23.2654 17.9285 23.1067 17.9817 23.001 18.0347C22.8953 18.0877 22.7893 18.1935 22.7363 18.2466C22.6835 18.3527 22.631 18.4064 22.5781 18.4595V19.8384C22.6309 19.8915 22.6836 19.9974 22.7363 20.0503C22.8421 20.1564 22.8952 20.2092 23.001 20.2622C23.1065 20.3151 23.2119 20.3685 23.3174 20.4214C23.476 20.4744 23.5826 20.4751 23.7412 20.4751C23.8997 20.4751 24.0583 20.4744 24.2168 20.4214C24.3754 20.4213 24.4812 20.3152 24.5869 20.2622V21.0581C24.534 21.1642 24.4807 21.217 24.375 21.27C24.2693 21.323 24.1634 21.3765 24.0049 21.3765C23.8464 21.3764 23.7404 21.323 23.6348 21.27C23.5293 21.2169 23.4766 21.1111 23.4238 21.0581V20.8462H22.5781V21.3237C22.6309 21.3769 22.6836 21.4827 22.7363 21.5356C22.7892 21.5887 22.8953 21.6945 23.001 21.7476C23.1067 21.8006 23.2653 21.8537 23.4238 21.9067C23.6351 21.9597 23.7936 21.9595 24.0049 21.9595C24.2164 21.9595 24.4283 21.9598 24.5869 21.9067C24.7455 21.8537 24.9041 21.7479 25.0098 21.6948C25.1684 21.5887 25.2214 21.5353 25.3271 21.4292C25.3799 21.3234 25.4326 21.2703 25.4854 21.1646V18.6177C25.4852 18.5119 25.4327 18.4589 25.3271 18.353C25.2214 18.2469 25.1155 18.1404 25.0098 18.0874C24.904 17.9814 24.7454 17.9285 24.5869 17.8755C24.4283 17.8224 24.2164 17.8228 24.0049 17.8228ZM26.1201 17.8228V20.103H26.9658C26.9661 20.0501 27.0195 19.9968 27.125 19.9438C27.1782 19.8911 27.3369 19.8911 27.4424 19.8911C27.6008 19.8912 27.7068 19.9446 27.8125 19.9976C27.9179 20.0507 27.9707 20.1565 28.0234 20.2095V21.0054C27.9707 21.1112 27.9179 21.1643 27.8125 21.2173C27.7068 21.2703 27.6008 21.3236 27.4424 21.3237C27.2839 21.3237 27.1779 21.2703 27.0723 21.2173C26.9666 21.1643 26.9132 21.0585 26.8604 21.0054V20.7925H26.0674V21.3237C26.1201 21.3768 26.1728 21.4826 26.2256 21.5356C26.2784 21.5887 26.3845 21.6945 26.4902 21.7476C26.5959 21.8006 26.7545 21.8537 26.9131 21.9067C27.1246 21.9598 27.2836 21.9595 27.4951 21.9595C27.7064 21.9595 27.9176 21.9597 28.0762 21.9067C28.2347 21.8537 28.3933 21.8006 28.499 21.7476C28.6047 21.6945 28.7108 21.5887 28.7637 21.5356C28.8165 21.4296 28.87 21.3768 28.9229 21.3237V19.9438C28.87 19.8908 28.8165 19.785 28.7637 19.7319C28.7109 19.6261 28.6582 19.573 28.5527 19.52C28.4471 19.467 28.341 19.4138 28.2354 19.3608C28.0769 19.3078 27.9709 19.3081 27.8125 19.3081C27.601 19.3081 27.4417 19.3078 27.3359 19.3608C27.1775 19.361 27.0715 19.467 26.9658 19.52V18.5649H28.8691V17.8228H26.1201ZM16.6035 18.0884V18.6714L17.1846 18.5649V21.271H16.6035V21.854H18.7178V21.271H18.1367V17.8755H17.3428L16.6035 18.0884ZM20.6211 20.0503C20.7797 20.0503 20.8855 20.1037 20.9912 20.1567C21.097 20.2098 21.1503 20.3156 21.2031 20.3687V21.0054C21.1503 21.1114 21.0969 21.1643 20.9912 21.2173C20.8855 21.2703 20.7796 21.3237 20.6211 21.3237C20.4626 21.3237 20.3567 21.2703 20.251 21.2173C20.1455 21.1643 20.0928 21.0585 20.04 21.0054V20.3687C20.0928 20.2627 20.1455 20.2097 20.251 20.1567C20.3567 20.1037 20.4626 20.0503 20.6211 20.0503ZM23.9521 18.4595C24.1107 18.4595 24.2166 18.5119 24.3223 18.5649C24.4279 18.618 24.4813 18.7238 24.5342 18.7769V19.6792C24.4285 19.7322 24.3752 19.7317 24.2695 19.7847C24.2167 19.8377 24.1106 19.8384 24.0049 19.8384C23.8464 19.8383 23.7405 19.7847 23.582 19.7847C23.4766 19.7316 23.4239 19.6258 23.3711 19.5728V18.7769C23.4239 18.6711 23.4765 18.6179 23.582 18.5649C23.6877 18.5119 23.7936 18.4595 23.9521 18.4595ZM20.5684 18.4058C20.727 18.4058 20.8327 18.4592 20.9385 18.5122C21.0442 18.5653 21.0975 18.6183 21.1504 18.6714V19.2544C21.0975 19.3074 21.0442 19.3605 20.9385 19.4136C20.8327 19.4666 20.727 19.52 20.5684 19.52C20.4626 19.52 20.3567 19.4666 20.251 19.4136C20.1454 19.3606 20.0929 19.3074 20.04 19.2544V18.6714C20.0928 18.6184 20.1454 18.5652 20.251 18.5122C20.3038 18.4592 20.4098 18.4058 20.5684 18.4058Z" fill="white"/>
</g>
<defs>
<clipPath id="clip0_2533_2593">
<rect width="150" height="61" fill="white"/>
</clipPath>
</defs>
</svg>
