<svg width="121" height="46" viewBox="0 0 121 46" fill="none" xmlns="http://www.w3.org/2000/svg">
<g clip-path="url(#clip0_2533_2634)">
<path d="M72.9706 37.6249C72.9706 37.2203 72.8367 36.8469 72.6157 36.5448H72.6244L52.4691 12.8137V12.8172C52.0637 12.3362 51.6079 12.074 51.0043 12.074C50.4006 12.074 49.9379 12.357 49.496 12.8797L21.5332 46.0001H30.0087L51.0025 21.208L60.9828 32.9468H44.5903L39.0217 39.443H71.1457C71.1457 39.443 71.1579 39.443 71.1631 39.443C71.1683 39.443 71.1753 39.443 71.1805 39.443H71.2136C72.1878 39.4135 72.9706 38.613 72.9706 37.6249Z" fill="white"/>
<path d="M23.7338 39.4516L29.2432 32.9345H11.8939L32.0718 9.13401L40.7456 19.3012L40.9283 19.1154L44.9868 14.3157L33.5523 0.7849C33.1313 0.295206 32.6842 0 32.0683 0C31.4525 0 30.9967 0.272631 30.5688 0.807475L0.504493 36.3607C0.193099 36.6889 0 37.1334 0 37.6248C0 38.6338 0.808928 39.4516 1.80748 39.4516C1.80748 39.4516 1.81096 39.4516 1.8127 39.4516H23.7355H23.7338Z" fill="white"/>
<path d="M82.1551 32.5786C81.5115 32.8755 80.2468 33.2211 78.7368 33.2211C74.9705 33.2211 72.5176 30.7969 72.5176 27.0635C72.5176 23.33 74.9948 20.6332 79.2308 20.6332C80.3459 20.6332 81.4854 20.8798 82.1795 21.2028L81.635 23.4776C81.1392 23.2553 80.4207 23.007 79.3317 23.007C77.0023 23.007 75.6159 24.714 75.6402 26.9141C75.6402 29.3869 77.2511 30.7969 79.3317 30.7969C80.3964 30.7969 81.1409 30.5747 81.7341 30.3263L82.1551 32.5769V32.5786Z" fill="white"/>
<path d="M86.3421 27.7806C86.4169 29.9565 88.1252 30.8959 90.0579 30.8959C91.4705 30.8959 92.4864 30.698 93.4015 30.3524L93.8468 32.4536C92.8065 32.8738 91.3696 33.2194 89.6352 33.2194C85.721 33.2194 83.416 30.7952 83.416 27.1121C83.416 23.7745 85.4479 20.6332 89.3116 20.6332C93.1753 20.6332 94.5131 23.8474 94.5131 26.4939C94.5131 27.0635 94.4644 27.508 94.414 27.7806H86.3386H86.3421ZM91.6427 25.6534C91.6671 24.5403 91.1713 22.71 89.1411 22.71C87.2589 22.71 86.4656 24.417 86.3421 25.6534H91.6427Z" fill="white"/>
<path d="M96.9703 24.9119C96.9703 23.33 96.9198 22.0432 96.8711 20.9058H99.5466L99.6945 22.7604H99.745C100.637 21.4007 102.048 20.6332 103.882 20.6332C106.657 20.6332 108.962 23.007 108.962 26.7665C108.962 31.1182 106.211 33.2211 103.461 33.2211C101.949 33.2211 100.686 32.5786 100.067 31.6131H100.018V39.3162H96.9703V24.9119ZM100.018 27.9039C100.018 28.2009 100.042 28.4735 100.117 28.7444C100.415 29.9808 101.504 30.8716 102.793 30.8716C104.726 30.8716 105.865 29.2636 105.865 26.8898C105.865 24.7626 104.825 23.0313 102.868 23.0313C101.605 23.0313 100.441 23.9464 100.143 25.2818C100.069 25.5284 100.02 25.801 100.02 26.0493V27.9039H100.018Z" fill="white"/>
<path d="M120.827 30.0554C120.827 31.1442 120.878 32.2069 121.001 32.9484H118.251L118.053 31.613H117.978C117.235 32.5525 115.972 33.221 114.41 33.221C111.981 33.221 110.619 31.4654 110.619 29.6352C110.619 26.5928 113.319 25.0612 117.779 25.0855V24.8876C117.779 24.0957 117.458 22.7864 115.327 22.7864C114.137 22.7864 112.898 23.158 112.08 23.6772L111.485 21.6993C112.378 21.1558 113.938 20.6366 115.845 20.6366C119.71 20.6366 120.824 23.0851 120.824 25.7055V30.0571L120.827 30.0554ZM117.854 27.0634C115.699 27.0148 113.643 27.4836 113.643 29.3139C113.643 30.5017 114.41 31.0452 115.377 31.0452C116.591 31.0452 117.482 30.2534 117.755 29.3886C117.83 29.1663 117.854 28.918 117.854 28.7218V27.0651V27.0634Z" fill="white"/>
</g>
<defs>
<clipPath id="clip0_2533_2634">
<rect width="121" height="46" fill="white"/>
</clipPath>
</defs>
</svg>
